:SAMPLES-PER-SECOND 30
:FULLY-SPECIFIED
:DEGREES
966
root  -56.411 32.352 -0.898361 -12.95 -52.95 143.673
RightUpLeg  -157.007 -23.4573 6.18885
RightLeg  47.7369 1.26133 1.13355
RightFoot  -24.2339 -0.189223 -0.216667
RightToes  3.49245e-010 0 -3.6325e-017
Spine  -145.271 -45.2049 -16.7312
Spine1  49.3729 -16.4163 7.90143
HEad  -34.2318 2.06919 -12.0436
LeftShoulder1  1.72881 -2.68452 -21.5566
LeftArm  -13.7746 -31.6877 -40.0673
LeftForeArm  -9.16169 -49.1728 -13.6559
LeftHand  -0.0302609 5.15366 3.63559
RightShoulder  0.600701 -1.12636 18.9483
RightArm  -8.40623 45.4457 29.724
RightForeArm  -9.82168 51.9556 15.1604
RightHand  -0.360388 12.0446 -2.83898
LeftUpLeg  -146.278 5.54255 4.71212
LeftLeg  -17.1674 58.127 -22.1064
LeftFoot  10.8967 2.18139 -11.3575
LeftToes  -5.36635e-011 -6.70219e-011 5.24975e-011
967
root  -57.17 32.3693 -1.00718 -17.334 -53.9988 144.34
RightUpLeg  -151.723 -23.2245 4.35873
RightLeg  48.2568 1.01848 0.856216
RightFoot  -25.3523 -0.207013 -0.292244
RightToes  3.49245e-010 0 -3.6325e-017
Spine  -143.458 -43.9578 -17.7794
Spine1  50.114 -15.829 7.57425
HEad  -32.6985 2.16544 -11.8293
LeftShoulder1  1.69988 -2.50754 -21.9373
LeftArm  -12.8124 -34.8484 -38.5793
LeftForeArm  -10.9011 -45.3114 -12.0417
LeftHand  -0.042049 4.50379 2.54025
RightShoulder  0.662391 -0.872465 18.8383
RightArm  -7.86507 47.5689 30.7978
RightForeArm  -11.746 48.3863 13.4528
RightHand  -0.27684 10.7905 -2.38931
LeftUpLeg  -144.411 2.73061 5.71718
LeftLeg  -14.1531 56.1931 -14.6499
LeftFoot  12.1359 1.9345 -9.95088
LeftToes  -5.36635e-011 -6.70219e-011 5.24975e-011
968
root  -57.9413 32.5978 -1.07065 -19.4189 -54.6782 142.094
RightUpLeg  -145.647 -24.3866 2.91651
RightLeg  48.1807 0.013694 -0.341868
RightFoot  -26.3178 -0.100235 0.5922
RightToes  3.49245e-010 0 -3.6325e-017
Spine  -140.999 -44.1921 -18.8409
Spine1  50.4213 -16.035 8.14104
HEad  -31.5062 2.19778 -10.9691
LeftShoulder1  1.75232 -2.56758 -22.5524
LeftArm  -11.633 -38.363 -37.554
LeftForeArm  -13.3195 -40.7316 -10.4185
LeftHand  -0.0326478 5.09597 2.98828
RightShoulder  0.692012 -0.747933 18.7725
RightArm  -7.87104 49.1913 31.9642
RightForeArm  -13.2111 44.9268 12.0188
RightHand  -0.0630354 9.86533 -0.8831
LeftUpLeg  -140.543 -1.04815 7.59985
LeftLeg  -14.6625 48.4735 -11.3473
LeftFoot  19.3651 -0.022947 -0.387184
LeftToes  -5.36635e-011 -6.70219e-011 5.24975e-011
969
root  -58.7952 32.7491 -1.05792 -17.7925 -55.0641 141.152
RightUpLeg  -143.511 -25.5047 2.02426
RightLeg  46.824 -1.35996 -1.90039
RightFoot  -26.758 0.0900363 2.00623
RightToes  3.49245e-010 0 -3.6325e-017
Spine  -142.881 -46.9596 -18.3756
Spine1  50.1443 -17.7635 8.19331
HEad  -30.0322 2.39724 -9.67015
LeftShoulder1  1.86923 -2.97258 -22.563
LeftArm  -11.4039 -40.0554 -37.3461
LeftForeArm  -14.1208 -37.274 -9.31724
LeftHand  -0.0330865 5.34701 3.75951
RightShoulder  0.76541 -0.438875 18.5932
RightArm  -6.75424 50.3001 33.0417
RightForeArm  -15.4957 41.42 10.7981
RightHand  0.0410968 9.26843 -0.0906721
LeftUpLeg  -140.673 -2.271 8.54526
LeftLeg  -14.4248 45.1794 -9.90543
LeftFoot  24.2602 -1.6153 4.65469
LeftToes  -5.36635e-011 -6.70219e-011 5.24975e-011
970
root  -59.6198 32.9386 -0.994248 -15.2495 -55.2695 139.523
RightUpLeg  -142.192 -26.8451 1.76001
RightLeg  46.0302 -2.44612 -3.06686
RightFoot  -26.3508 0.3333 3.87513
RightToes  3.49245e-010 0 -3.6325e-017
Spine  -142.885 -50.8885 -19.4739
Spine1  50.2226 -20.2395 7.111
HEad  -29.0708 1.66268 -7.95853
LeftShoulder1  1.96806 -3.4977 -21.7722
LeftArm  -11.8622 -41.7377 -37.2945
LeftForeArm  -12.705 -34.2774 -8.35211
LeftHand  -0.0214005 6.51234 0.980676
RightShoulder  0.754123 -0.567443 19.3678
RightArm  -5.04151 51.4945 34.5106
RightForeArm  -18.9695 37.8103 9.74731
RightHand  -0.0326391 8.61434 -0.658538
LeftUpLeg  -140.576 -3.59113 8.23706
LeftLeg  -14.0397 43.649 -11.263
LeftFoot  22.1577 -1.39031 4.13407
LeftToes  -5.36635e-011 -6.70219e-011 5.24975e-011
971
root  -60.3667 33.1534 -0.888264 -14.2557 -55.9896 137.366
RightUpLeg  -140.434 -27.7143 1.62743
RightLeg  47.6282 -2.67229 -3.48436
RightFoot  -24.6929 0.649649 7.04455
RightToes  3.49245e-010 0 -3.6325e-017
Spine  -140.484 -52.0887 -21.4962
Spine1  50.4891 -20.8171 5.86253
HEad  -28.4807 0.150391 -6.68912
LeftShoulder1  2.13751 -4.22904 -21.2607
LeftArm  -10.9697 -43.8584 -37.1894
LeftForeArm  -13.5967 -30.85 -7.45451
LeftHand  -0.033338 6.74408 0.345547
RightShoulder  0.784989 -0.469064 19.5615
RightArm  -3.75547 51.8883 35.8701
RightForeArm  -21.0636 34.0793 8.70793
RightHand  0.226686 9.35516 1.38315
LeftUpLeg  -138.514 -5.6724 8.04454
LeftLeg  -13.6223 41.2004 -11.389
LeftFoot  20.2512 -0.680977 1.97382
LeftToes  -5.36635e-011 -6.70219e-011 5.24975e-011
972
root  -61.1105 33.2824 -0.804055 -13.3535 -55.4793 138.368
RightUpLeg  -143.153 -28.8483 1.91748
RightLeg  50.5733 -1.88724 -2.8439
RightFoot  -20.5734 0.79242 11.6788
RightToes  3.49245e-010 0 -3.6325e-017
Spine  -141.349 -54.1152 -22.4569
Spine1  49.4519 -21.1645 5.32562
HEad  -27.5513 -0.80718 -6.08245
LeftShoulder1  2.33459 -4.80762 -21.7498
LeftArm  -10.0092 -45.1342 -36.6361
LeftForeArm  -13.7277 -28.0411 -6.74493
LeftHand  -0.0560627 7.27706 -0.958265
RightShoulder  0.864568 -0.151703 19.471
RightArm  -1.4723 52.58 36.8667
RightForeArm  -23.6936 30.0207 7.70639
RightHand  0.204294 9.50404 1.18739
LeftUpLeg  -139.429 -6.11732 9.14222
LeftLeg  -13.3392 41.7822 -9.90344
LeftFoot  19.468 -0.599036 1.73732
LeftToes  -5.36635e-011 -6.70219e-011 5.24975e-011
973
root  -61.8597 33.3244 -0.747215 -12.545 -54.3268 141.525
RightUpLeg  -149.298 -30.0398 2.13824
RightLeg  54.9344 -1.33362 -2.47878
RightFoot  -13.1865 0.149429 13.4952
RightToes  3.49245e-010 0 -3.6325e-017
Spine  -144.316 -57.8879 -22.54
Spine1  48.2394 -23.1102 5.10716
HEad  -26.8733 -1.07911 -6.17023
LeftShoulder1  2.42707 -5.04617 -22.0731
LeftArm  -9.5828 -45.8088 -35.3128
LeftForeArm  -14.2026 -25.7545 -6.2234
LeftHand  -0.0660103 7.1037 -1.70468
RightShoulder  0.987204 0.408465 18.8392
RightArm  1.59722 54.1401 38.3339
RightForeArm  -25.2778 25.9657 6.75203
RightHand  0.253947 8.8845 1.6593
LeftUpLeg  -142.683 -5.26258 10.5155
LeftLeg  -11.6968 44.5718 -7.27199
LeftFoot  18.6053 -0.525764 1.53075
LeftToes  -5.36635e-011 -6.70219e-011 5.24975e-011
974
root  -62.5721 33.4187 -0.685647 -11.9893 -54.1725 143.004
RightUpLeg  -154.234 -30.4827 2.4657
RightLeg  59.61 -0.837666 -2.05774
RightFoot  -4.73635 -0.609912 10.5261
RightToes  3.49245e-010 0 -3.6325e-017
Spine  -146.743 -59.8664 -21.7296
Spine1  48.6891 -24.5669 4.51813
HEad  -27.7735 -0.564289 -5.83967
LeftShoulder1  2.32138 -4.66022 -22.1236
LeftArm  -7.77997 -48.1731 -33.4641
LeftForeArm  -16.8757 -22.9353 -5.74152
LeftHand  -0.0663463 7.0153 -1.7855
RightShoulder  1.10852 1.01344 18.0658
RightArm  4.28451 56.1506 39.8043
RightForeArm  -27.1187 22.4809 6.11126
RightHand  0.303234 9.51844 1.94882
LeftUpLeg  -143.933 -4.63434 10.8804
LeftLeg  -10.2146 45.342 -6.48419
LeftFoot  16.8987 -0.349719 0.978296
LeftToes  -5.36635e-011 -6.70219e-011 5.24975e-011
975
root  -63.2035 33.4946 -0.639483 -10.7186 -54.3939 143.724
RightUpLeg  -159.018 -30.6267 2.99565
RightLeg  63.1738 -0.288681 -1.20853
RightFoot  -0.198663 -0.648446 6.44733
RightToes  3.49245e-010 0 -3.6325e-017
Spine  -148.67 -62.0312 -20.8709
Spine1  49.2843 -26.5861 3.60112
HEad  -29.0864 -0.732391 -4.68197
LeftShoulder1  2.37541 -5.39723 -20.2655
LeftArm  -9.51757 -48.1976 -32.7755
LeftForeArm  -16.7758 -21.2742 -5.68211
LeftHand  -0.0903499 7.92923 -1.77545
RightShoulder  1.19216 1.42578 17.6619
RightArm  6.13838 57.9728 40.848
RightForeArm  -26.8758 20.0518 6.02989
RightHand  0.264105 8.9488 1.74362
LeftUpLeg  -144.989 -4.30598 11.1713
LeftLeg  -9.52488 45.4125 -6.16241
LeftFoot  15.466 -0.220292 0.518089
LeftToes  -5.36635e-011 -6.70219e-011 5.24975e-011
976
root  -63.7512 33.522 -0.655985 -10.1404 -53.8112 146.152
RightUpLeg  -164.023 -31.3253 2.82009
RightLeg  64.3208 0.377854 0.2296
RightFoot  -3.27723 -0.522459 7.05861
RightToes  3.49245e-010 0 -3.6325e-017
Spine  -149.802 -65.6744 -21.7363
Spine1  49.2595 -28.9695 3.47201
HEad  -30.514 -2.08832 -3.34681
LeftShoulder1  2.54657 -6.32573 -19.4107
LeftArm  -10.4811 -49.6444 -32.0963
LeftForeArm  -17.2669 -18.5227 -5.88945
LeftHand  -0.0931585 7.97117 -1.88135
RightShoulder  1.18494 1.36042 17.862
RightArm  6.00575 59.5667 40.9805
RightForeArm  -24.3065 17.7961 6.16242
RightHand  0.381718 8.68019 2.74829
LeftUpLeg  -147.226 -3.231 11.7314
LeftLeg  -7.94191 47.1712 -4.28341
LeftFoot  14.2056 -0.0304715 -0.246024
LeftToes  -5.36635e-011 -6.70219e-011 5.24975e-011
977
root  -64.1858 33.7426 -0.665423 -12.5677 -54.0073 145.671
RightUpLeg  -163.107 -31.8713 1.14973
RightLeg  63.4299 0.475768 0.443461
RightFoot  -4.26426 -0.440004 6.64964
RightToes  3.49245e-010 0 -3.6325e-017
Spine  -147.208 -62.7379 -22.2549
Spine1  49.5933 -26.5635 4.35171
HEad  -32.3377 -3.02234 -2.63255
LeftShoulder1  2.62006 -6.57074 -19.5306
LeftArm  -12.5415 -51.3146 -31.5802
LeftForeArm  -17.2334 -15.8906 -6.10785
LeftHand  -0.0926235 7.97882 -1.64614
RightShoulder  1.22474 1.68129 17.0478
RightArm  5.22045 61.1929 41.898
RightForeArm  -22.2263 14.8965 6.52886
RightHand  0.395866 8.56442 2.89271
LeftUpLeg  -143.358 -4.56625 11.676
LeftLeg  -9.95208 46.3347 -5.89952
LeftFoot  13.9778 -0.161791 0.336221
LeftToes  -5.36635e-011 -6.70219e-011 5.24975e-011
978
root  -64.5443 34.0425 -0.688731 -16.2857 -54.6167 144.453
RightUpLeg  -159.49 -32.1607 -1.30458
RightLeg  59.8775 0.130235 -0.262155
RightFoot  -4.57648 -0.456414 7.17855
RightToes  3.49245e-010 0 -3.6325e-017
Spine  -143.225 -57.4889 -22.6724
Spine1  50.1503 -22.6551 4.84585
HEad  -33.9856 -3.65427 -1.20792
LeftShoulder1  2.65878 -6.87121 -19.1188
LeftArm  -14.9694 -51.9525 -31.1095
LeftForeArm  -16.6461 -13.9475 -5.87199
LeftHand  -0.0858094 7.99451 -1.80486
RightShoulder  1.33106 2.26847 16.4299
RightArm  4.64908 62.9238 43.4905
RightForeArm  -20.2524 11.7574 6.91794
RightHand  0.270646 8.21218 1.92366
LeftUpLeg  -137.451 -6.30403 11.2846
LeftLeg  -12.738 44.9209 -8.2086
LeftFoot  14.2228 -0.455914 1.62335
LeftToes  -5.36635e-011 -6.70219e-011 5.24975e-011
979
root  -64.7993 34.3427 -0.710665 -20.3489 -55.6931 142.121
RightUpLeg  -153.431 -32.0941 -4.18134
RightLeg  53.8505 -0.849509 -1.62275
RightFoot  -5.06168 -0.425742 7.13426
RightToes  3.49245e-010 0 -3.6325e-017
Spine  -136.998 -51.8649 -23.6363
Spine1  50.2162 -18.9462 5.14594
HEad  -34.6531 -3.17846 0.35741
LeftShoulder1  2.65556 -6.98946 -18.7774
LeftArm  -17.1043 -52.5864 -30.8757
LeftForeArm  -16.008 -12.1692 -5.29823
LeftHand  -0.0909785 8.65269 -1.46373
RightShoulder  1.45133 2.90639 15.9549
RightArm  3.93306 63.9446 45.3208
RightForeArm  -18.4908 9.23001 6.75958
RightHand  0.254615 8.18175 1.79553
LeftUpLeg  -130.762 -8.56537 10.6095
LeftLeg  -14.0185 42.6015 -9.09503
LeftFoot  14.4398 -0.604269 2.25253
LeftToes  -5.36635e-011 -6.70219e-011 5.24975e-011
980
root  -64.9922 34.5632 -0.742388 -22.6348 -57.0005 140.039
RightUpLeg  -147.637 -32.0559 -6.79843
RightLeg  44.6342 -2.34568 -2.80706
RightFoot  -6.11863 -0.396378 7.76458
RightToes  3.49245e-010 0 -3.6325e-017
Spine  -132.7 -48.1869 -23.6003
Spine1  50.0675 -16.977 5.56247
HEad  -35.5771 -2.18689 1.51566
LeftShoulder1  2.65821 -7.23153 -18.1858
LeftArm  -18.5511 -53.4269 -30.5483
LeftForeArm  -16.1112 -10.6348 -4.74824
LeftHand  -0.0985861 8.70936 -1.67736
RightShoulder  1.47877 3.0627 15.8268
RightArm  3.66573 65.2077 46.5481
RightForeArm  -19.309 7.27445 6.54685
RightHand  0.431559 8.36559 3.24467
LeftUpLeg  -126.568 -9.80102 10.1222
LeftLeg  -13.4331 40.7608 -8.45188
LeftFoot  14.3693 -0.580433 2.15586
LeftToes  -5.36635e-011 -6.70219e-011 5.24975e-011
